HIERARCHY
ROOT ZeroOut_JNT
{
  OFFSET 0 0 0
  CHANNELS 6 Xposition Yposition Zposition Zrotation Xrotation Yrotation
  JOINT SpineFinal_1_JNT
  {
    OFFSET 1.09941 64.002 -42.9966
    CHANNELS 6 Xposition Yposition Zposition Zrotation Xrotation Yrotation
    JOINT l_legIKClavicle_Root_JNT
    {
      OFFSET -2.64853 -0.810668 10.7015
      CHANNELS 6 Xposition Yposition Zposition Zrotation Xrotation Yrotation
      JOINT l_legBlendRoot_JNT
      {
        OFFSET 16.1374 0 0
        CHANNELS 6 Xposition Yposition Zposition Zrotation Xrotation Yrotation
        JOINT l_legBlendMiddle_JNT
        {
          OFFSET 27.0969 0 0
          CHANNELS 6 Xposition Yposition Zposition Zrotation Xrotation Yrotation
          JOINT l_legBlendEnd_JNT
          {
            OFFSET 24.8414 0 0
            CHANNELS 6 Xposition Yposition Zposition Zrotation Xrotation Yrotation
            JOINT l_legBlendTip_JNT
            {
              OFFSET 6.77858 0 0
              CHANNELS 6 Xposition Yposition Zposition Zrotation Xrotation Yrotation
              End Site
              {
                OFFSET 0 0 0
              }
            }
          }
        }
      }
    }
    JOINT SpineFinal_2_JNT
    {
      OFFSET -19.9136 -1.49144 0.993757
      CHANNELS 6 Xposition Yposition Zposition Zrotation Xrotation Yrotation
      JOINT SpineFinal_3_JNT
      {
        OFFSET -19.2001 3.24201 2.0363
        CHANNELS 6 Xposition Yposition Zposition Zrotation Xrotation Yrotation
        JOINT SpineFinal_4_JNT
        {
          OFFSET -19.1272 6.18264 0.824529
          CHANNELS 6 Xposition Yposition Zposition Zrotation Xrotation Yrotation
          JOINT SpineFinal_5_JNT
          {
            OFFSET -18.1852 7.21578 -1.20318
            CHANNELS 6 Xposition Yposition Zposition Zrotation Xrotation Yrotation
            JOINT SpineFinal_6_JNT
            {
              OFFSET -19.144 8.35871 0
              CHANNELS 6 Xposition Yposition Zposition Zrotation Xrotation Yrotation
              JOINT SpineFinal_7_JNT
              {
                OFFSET -16.3943 7.24542 0
                CHANNELS 6 Xposition Yposition Zposition Zrotation Xrotation Yrotation
                JOINT SpineFinal_8_JNT
                {
                  OFFSET -19.3877 2.40349 0
                  CHANNELS 6 Xposition Yposition Zposition Zrotation Xrotation Yrotation
                  JOINT head_JNT
                  {
                    OFFSET -13.796 -11.6756 0
                    CHANNELS 6 Xposition Yposition Zposition Zrotation Xrotation Yrotation
                    JOINT l_hornRoot_JNT
                    {
                      OFFSET -15.825 14.8229 15.3879
                      CHANNELS 6 Xposition Yposition Zposition Zrotation Xrotation Yrotation
                      JOINT l_hornMid_JNT
                      {
                        OFFSET 6.55118 0 0
                        CHANNELS 6 Xposition Yposition Zposition Zrotation Xrotation Yrotation
                        JOINT l_hornEnd_JNT
                        {
                          OFFSET 6.73503 0 0
                          CHANNELS 6 Xposition Yposition Zposition Zrotation Xrotation Yrotation
                          End Site
                          {
                            OFFSET 0 0 0
                          }
                        }
                      }
                    }
                    JOINT headJend_JNT
                    {
                      OFFSET 1.34858 -27.5886 0
                      CHANNELS 6 Xposition Yposition Zposition Zrotation Xrotation Yrotation
                      End Site
                      {
                        OFFSET -0.885571 -8.63314 -0.143146
                      }
                    }
                    JOINT r_hornRoot_JNT
                    {
                      OFFSET -15.825 14.8229 -15.3879
                      CHANNELS 6 Xposition Yposition Zposition Zrotation Xrotation Yrotation
                      JOINT r_hornMid_JNT
                      {
                        OFFSET -2.40814 5.46468 -2.69372
                        CHANNELS 6 Xposition Yposition Zposition Zrotation Xrotation Yrotation
                        JOINT r_hornEnd_JNT
                        {
                          OFFSET -2.40922 6.0083 -1.85921
                          CHANNELS 6 Xposition Yposition Zposition Zrotation Xrotation Yrotation
                          End Site
                          {
                            OFFSET 0 0 0
                          }
                        }
                      }
                    }
                    JOINT m_upLip_JNT
                    {
                      OFFSET 4.72477 -9.87974 0
                      CHANNELS 6 Xposition Yposition Zposition Zrotation Xrotation Yrotation
                      JOINT l_lipUpRoot_JNT
                      {
                        OFFSET 2.68891 -0.690234 4.02874
                        CHANNELS 6 Xposition Yposition Zposition Zrotation Xrotation Yrotation
                        JOINT l_lipUpEnd_JNT
                        {
                          OFFSET 0 0 -14.9226
                          CHANNELS 6 Xposition Yposition Zposition Zrotation Xrotation Yrotation
                          End Site
                          {
                            OFFSET 0 0 0
                          }
                        }
                      }
                      JOINT m_upLipRoot_JNT
                      {
                        OFFSET 0 0 3.94939
                        CHANNELS 6 Xposition Yposition Zposition Zrotation Xrotation Yrotation
                        JOINT m_upLipEnd_JNT
                        {
                          OFFSET 0 0 15.0019
                          CHANNELS 6 Xposition Yposition Zposition Zrotation Xrotation Yrotation
                          End Site
                          {
                            OFFSET 0 0 0
                          }
                        }
                      }
                      JOINT r_lipUpRoot_JNT
                      {
                        OFFSET -2.689 -0.690236 4.02875
                        CHANNELS 6 Xposition Yposition Zposition Zrotation Xrotation Yrotation
                        JOINT r_lipUpEnd_JNT
                        {
                          OFFSET 9.35075e-005 -0.000392738 14.9226
                          CHANNELS 6 Xposition Yposition Zposition Zrotation Xrotation Yrotation
                          End Site
                          {
                            OFFSET 0 0 0
                          }
                        }
                      }
                    }
                    JOINT m_DnLip_JNT
                    {
                      OFFSET 6.0207 -9.81639 0
                      CHANNELS 6 Xposition Yposition Zposition Zrotation Xrotation Yrotation
                      JOINT l_lipDn_JNT
                      {
                        OFFSET 2.71301 -0.162748 3.99146
                        CHANNELS 6 Xposition Yposition Zposition Zrotation Xrotation Yrotation
                        JOINT l_lipEnd_JNT
                        {
                          OFFSET 0 0 -14.9599
                          CHANNELS 6 Xposition Yposition Zposition Zrotation Xrotation Yrotation
                          End Site
                          {
                            OFFSET 0 0 0
                          }
                        }
                      }
                      JOINT m_dnLip_JNT
                      {
                        OFFSET 0 -0.0431035 3.99141
                        CHANNELS 6 Xposition Yposition Zposition Zrotation Xrotation Yrotation
                        JOINT m_dnLipEnd_JNT
                        {
                          OFFSET 0 0 14.9599
                          CHANNELS 6 Xposition Yposition Zposition Zrotation Xrotation Yrotation
                          End Site
                          {
                            OFFSET 0 0 0
                          }
                        }
                      }
                      JOINT r_lipDn_JNT
                      {
                        OFFSET -2.71301 -0.162761 3.99141
                        CHANNELS 6 Xposition Yposition Zposition Zrotation Xrotation Yrotation
                        JOINT r_lipDnEnd_JNT
                        {
                          OFFSET 0 0 14.9599
                          CHANNELS 6 Xposition Yposition Zposition Zrotation Xrotation Yrotation
                          End Site
                          {
                            OFFSET 0 0 0
                          }
                        }
                      }
                    }
                    JOINT l_lid_JNT
                    {
                      OFFSET -7.85698 -6.72885 9.63956
                      CHANNELS 6 Xposition Yposition Zposition Zrotation Xrotation Yrotation
                      End Site
                      {
                        OFFSET 0 0 0
                      }
                    }
                    JOINT r_lid_JNT
                    {
                      OFFSET -7.85684 -6.72882 -9.63956
                      CHANNELS 6 Xposition Yposition Zposition Zrotation Xrotation Yrotation
                      End Site
                      {
                        OFFSET 0 0 0
                      }
                    }
                  }
                }
              }
            }
            JOINT l_FwClavicleRoot_JNT
            {
              OFFSET -3.21476 -4.3187 6.08742
              CHANNELS 6 Xposition Yposition Zposition Zrotation Xrotation Yrotation
              JOINT l_FwLegBlendRoot_JNT
              {
                OFFSET 21.051 0 0
                CHANNELS 6 Xposition Yposition Zposition Zrotation Xrotation Yrotation
                JOINT l_FwLegBlendMiddle_JNT
                {
                  OFFSET 33.1145 0 0
                  CHANNELS 6 Xposition Yposition Zposition Zrotation Xrotation Yrotation
                  JOINT l_FwLegBlendTip_JNT
                  {
                    OFFSET 29.9221 0 0
                    CHANNELS 6 Xposition Yposition Zposition Zrotation Xrotation Yrotation
                    JOINT l_FwLegBlendEnd_JNT
                    {
                      OFFSET 9.62649 0 0
                      CHANNELS 6 Xposition Yposition Zposition Zrotation Xrotation Yrotation
                      End Site
                      {
                        OFFSET 0 0 0
                      }
                    }
                  }
                }
              }
            }
            JOINT r_FwClavicleRoot_JNT
            {
              OFFSET 1.57499 -4.64749 -6.47788
              CHANNELS 6 Xposition Yposition Zposition Zrotation Xrotation Yrotation
              JOINT r_FwLegBlendRoot_JNT
              {
                OFFSET 1.1653 -12.7157 -16.7361
                CHANNELS 6 Xposition Yposition Zposition Zrotation Xrotation Yrotation
                JOINT r_FwLegBlendMiddle_JNT
                {
                  OFFSET 16.2308 -5.97551 28.2387
                  CHANNELS 6 Xposition Yposition Zposition Zrotation Xrotation Yrotation
                  JOINT r_FwLegBlendTip_JNT
                  {
                    OFFSET 26.7017 -9.19239 -9.89204
                    CHANNELS 6 Xposition Yposition Zposition Zrotation Xrotation Yrotation
                    JOINT r_FwLegBlendEnd_JNT
                    {
                      OFFSET 4.44874 -7.74942 3.58114
                      CHANNELS 6 Xposition Yposition Zposition Zrotation Xrotation Yrotation
                      End Site
                      {
                        OFFSET 0 0 0
                      }
                    }
                  }
                }
              }
            }
          }
        }
      }
    }
    JOINT r_legIKClavicle_Root_JNT
    {
      OFFSET -4.94604 1.23737 -11.8565
      CHANNELS 6 Xposition Yposition Zposition Zrotation Xrotation Yrotation
      JOINT r_legBlendRoot_JNT
      {
        OFFSET 13.2848 -5.74129 -7.13912
        CHANNELS 6 Xposition Yposition Zposition Zrotation Xrotation Yrotation
        JOINT r_legBlendMiddle_JNT
        {
          OFFSET 14.815 16.9375 15.0957
          CHANNELS 6 Xposition Yposition Zposition Zrotation Xrotation Yrotation
          JOINT r_legBlendEnd_JNT
          {
            OFFSET 23.6904 -6.58016 -3.54465
            CHANNELS 6 Xposition Yposition Zposition Zrotation Xrotation Yrotation
            JOINT r_legBlendTip_JNT
            {
              OFFSET 1.47758 -6.16068 -2.41079
              CHANNELS 6 Xposition Yposition Zposition Zrotation Xrotation Yrotation
              End Site
              {
                OFFSET 0 0 0
              }
            }
          }
        }
      }
    }
    JOINT tailRoot_JNT
    {
      OFFSET 2.82533 14.5514 0
      CHANNELS 6 Xposition Yposition Zposition Zrotation Xrotation Yrotation
      JOINT tailMid_JNT
      {
        OFFSET 7.87756 0 0
        CHANNELS 6 Xposition Yposition Zposition Zrotation Xrotation Yrotation
        JOINT tailEnd_JNT
        {
          OFFSET 6.52588 0 0
          CHANNELS 6 Xposition Yposition Zposition Zrotation Xrotation Yrotation
          End Site
          {
            OFFSET 0 0 0
          }
        }
      }
    }
    JOINT l_shoulderBkRoot_JNT
    {
      OFFSET -9.30511 7.998 11.2048
      CHANNELS 6 Xposition Yposition Zposition Zrotation Xrotation Yrotation
      JOINT l_shoulderBkMid_JNT
      {
        OFFSET 0 2.004 0
        CHANNELS 6 Xposition Yposition Zposition Zrotation Xrotation Yrotation
        End Site
        {
          OFFSET 0 0 0
        }
      }
    }
    JOINT r_shoulderBkRoot_JNT
    {
      OFFSET -9.30514 7.99801 -11.2048
      CHANNELS 6 Xposition Yposition Zposition Zrotation Xrotation Yrotation
      JOINT r_shoulderBkMid_JNT
      {
        OFFSET 0 -3.9713 0
        CHANNELS 6 Xposition Yposition Zposition Zrotation Xrotation Yrotation
        End Site
        {
          OFFSET 0 0 0
        }
      }
    }
  }
}
MOTION
Frames:	3
Frame Time:	0.0416667
0 0 0 0 0 -0 3.14341e-015 63.9334 -43.0028 0.16669 6.43652 89.9793 -0.323145 -1.55994 9.59625 -26.4062 61.2999 -67.9538 16.1374 -6.36432e-007 1.6858e-006 -27.123 10.3323 46.1145 27.0969 -7.10543e-015 -2.84217e-014 5.01844e-015 2.23633e-015 -53.9571 24.8414 0 -7.10543e-015 0.0449905 0.0369596 -50.1844 6.77858 -7.10543e-015 -1.42109e-014 -5.68727e-021 -9.19443e-021 -3.18055e-015 -19.533 -0.0634431 0.000488822 0.328786 0.143148 0.00149753 -19.3615 1.8275 0.000460946 -4.64179 0.0197766 0.000994806 -18.2589 5.55748 -8.05157e-007 -16.8686 4.47847e-005 -1.52793e-005 -17.9347 7.22118 -3.29906e-006 -19.824 -5.95439e-005 -7.52661e-006 -19.144 8.35871 -2.07816e-014 -22.9901 -1.17252e-016 -1.12205e-014 -16.3943 7.24542 2.60755e-014 -23.5569 6.29782e-015 -1.27184e-014 -19.3877 2.40349 -3.46624e-014 -6.49682 9.4149e-015 -1.28014e-014 -13.796 -11.6756 2.83194e-014 -2.39048 0 -6.37265e-019 -15.825 14.8229 15.3879 112.717 -2.35881 -24.301 6.55118 1.13687e-013 3.55271e-015 32.9598 -5.26431 5.84509 6.73503 1.42109e-014 -4.9738e-014 -3.53113e-031 -6.36111e-015 -3.18055e-015 1.34858 -27.5886 -1.33916e-014 92.7985 1.31731e-014 -1.65353e-014 -15.825 14.8229 -15.3879 -8.74653e-015 1.59037e-015 7.95068e-015 -2.40814 5.46468 -2.69372 -4.83327 -7.48659 -0.0310839 -2.40922 6.0083 -1.85921 -1.59028e-015 0 9.93923e-017 4.72477 -9.87974 -3.65159e-016 92.7985 3.50417e-015 -90 2.68891 -0.690234 4.02874 180 7.01671e-015 -180 0 0 -14.9226 2.5479e-019 3.97569e-016 9.70628e-020 0 0 3.94939 -5.79344e-019 7.95139e-016 -0 0 2.84217e-014 15.0019 -5.79344e-019 7.95139e-016 -9.70628e-020 -2.689 -0.690236 4.02875 -5.79344e-019 7.95139e-016 -0 9.35075e-005 -0.000392738 14.9226 -5.79344e-019 7.95139e-016 -9.70628e-020 6.0207 -9.81639 -3.6646e-016 92.7985 3.50417e-015 -90 2.71301 -0.162748 3.99146 180 7.01671e-015 -180 0 -2.84217e-014 -14.9599 2.5479e-019 3.97569e-016 9.70628e-020 -8.23994e-018 -0.0431035 3.99141 -5.79344e-019 7.95139e-016 -0 4.33681e-019 -2.84217e-014 14.9599 -5.79344e-019 7.95139e-016 -9.70628e-020 -2.71301 -0.162761 3.99141 -5.79344e-019 7.95139e-016 -0 -8.88178e-016 0 14.9599 -5.79344e-019 7.95139e-016 -9.70628e-020 -7.85698 -6.72885 9.63956 34.106 19.9417 85.9622 -7.85684 -6.72882 -9.63956 -145.894 19.9417 85.9622 0.518472 -4.44347 6.72563 46.6885 26.2598 -112.653 21.051 -2.0897e-008 -1.13654e-007 69.3893 -60.8321 135.133 33.1145 8.3753e-007 -2.8019e-007 133.269 7.01671e-015 180 29.9221 2.84217e-014 1.77636e-014 36.5393 2.0455e-015 4.41927e-015 9.62649 2.13163e-014 7.10543e-015 29.859 -1.7467e-015 90 0.406132 -4.47927 -6.72563 -29.2302 9.37303 -17.9843 1.1653 -12.7157 -16.7361 72.1834 -61.2809 135.929 16.2308 -5.97551 28.2387 140.906 2.30927 173.268 26.7017 -9.19239 -9.89204 41.0891 3.63039 2.0878 4.44874 -7.74942 3.58114 29.859 -8.08068e-015 90 -0.323145 -1.55994 -9.59625 -62.7106 -9.24999 4.74057 13.2848 -5.74129 -7.13912 -26.1086 10.3603 45.6134 14.815 16.9375 15.0957 -0.270023 0.27514 -54.0469 23.6904 -6.58016 -3.54465 0.018966 0.0279226 -50.0394 1.47758 -6.16068 -2.41079 3.97569e-016 -7.95139e-016 -2.03754e-015 2.82533 14.5514 -1.52656e-014 6.34761 -1.63842e-016 -5.22431e-015 7.87756 -1.42109e-014 -5.41234e-015 20.0025 -1.68035e-015 7.82715e-016 6.52588 1.42109e-014 -1.58207e-015 0.147725 2.64011e-017 -3.10601e-018 -9.30511 7.998 11.2048 -6.8505 -4.18474e-016 -90 0 0 0 -4.60078e-017 9.93923e-017 -0 -9.30514 7.99801 -11.2048 173.149 4.18474e-016 -90 0 0 0 4.27076e-018 -9.93923e-017 3.10601e-018 
0 0 0 0 0 -0 -1.22327e-016 64.0226 -43 0.00831967 6.82953 89.9989 -0.323145 -1.55994 9.59625 -26.4062 61.2999 -67.9538 16.1374 -6.32415e-007 1.68252e-006 -26.9167 10.382 45.4849 27.0969 3.55271e-015 0 4.98371e-015 2.22779e-015 -53.941 24.8414 1.06581e-014 2.84217e-014 0.0022592 0.00186604 -50.0341 6.77858 -3.55271e-015 -1.42109e-014 -1.51661e-020 0 -6.36111e-015 -19.5397 0 -2.98719e-015 -7.95139e-016 -1.06769e-018 -1.94126e-019 -19.4076 1.98539 -3.88578e-015 -5.77921 0.000987879 0.000137417 -18.5401 5.80111 5.88505e-015 -17.3514 2.08231e-006 -7.54677e-007 -18.018 7.25644 -4.85809e-015 -21.9197 -2.79434e-006 -6.47069e-007 -19.144 8.35871 -2.88346e-014 -23.5618 -4.65902e-018 -1.12219e-014 -16.3943 7.24542 1.55605e-014 -23.8325 6.35897e-015 -1.26906e-014 -19.3877 2.40349 -4.69347e-014 -7.04243 9.53623e-015 -1.271e-014 -13.796 -11.6756 2.31438e-014 7.95139e-016 0 3.17881e-018 -15.825 14.8229 15.3879 112.717 -2.35881 -24.301 6.55118 2.27374e-013 0 10.469 -7.09201 3.39321 6.73503 0 -4.9738e-014 -3.18055e-015 -3.18055e-015 -9.54166e-015 1.34858 -27.5886 -1.33903e-014 92.7985 1.31748e-014 -1.6535e-014 -15.825 14.8229 -15.3879 5.1684e-015 -2.22643e-014 -2.70315e-014 -2.40814 5.46468 -2.69372 -26.3552 -5.34193 -8.96423 -2.40922 6.0083 -1.85921 -8.82781e-032 1.59028e-015 3.18055e-015 4.72477 -9.87974 5.55805e-015 92.7985 3.50417e-015 -90 2.68891 -0.690234 4.02874 180 7.01671e-015 -180 0 0 -14.9226 5.42945e-019 -4.96962e-017 1.94126e-019 1.29931e-015 0 3.94939 -1.98296e-018 -4.96962e-017 -0 -8.67362e-019 0 15.0019 -1.98334e-018 -4.96962e-017 -0 -2.689 -0.690236 4.02875 -1.98296e-018 -4.96962e-017 -0 9.35075e-005 -0.000392738 14.9226 -1.98334e-018 -4.96962e-017 -0 6.0207 -9.81639 6.35342e-015 92.7985 3.50417e-015 -90 2.71301 -0.162748 3.99146 180 7.01671e-015 -180 4.44089e-016 0 -14.9599 5.42945e-019 -4.96962e-017 1.94126e-019 1.33313e-015 -0.0431035 3.99141 -1.98296e-018 -4.96962e-017 -0 -2.60209e-018 -2.84217e-014 14.9599 -1.98334e-018 -4.96962e-017 -0 -2.71301 -0.162761 3.99141 -1.98296e-018 -4.96962e-017 -0 4.44089e-016 0 14.9599 -1.98334e-018 -4.96962e-017 -0 -7.85698 -6.72885 9.63956 34.106 19.9417 85.9622 -7.85684 -6.72882 -9.63956 -145.894 19.9417 85.9622 0.43207 -4.54112 6.72563 48.7527 26.2613 -112.656 21.051 4.13053e-010 2.27599e-009 71.296 -61.7185 136.805 33.1145 8.3753e-007 -2.8019e-007 140.532 -7.01671e-015 180 29.9221 -2.13163e-014 0 40.9768 2.38386e-015 4.24863e-015 9.62649 2.13163e-014 3.55271e-015 29.859 -1.7467e-015 90 0.43207 -4.54112 -6.72563 -26.6604 9.37183 -17.9816 1.1653 -12.7157 -16.7361 71.3171 -61.716 136.8 16.2308 -5.97551 28.2387 140.795 0.0701747 179.785 26.7017 -9.19239 -9.89204 41.1428 0.122022 0.0708946 4.44874 -7.74942 3.58114 29.859 -1.7467e-015 90 -0.323145 -1.55994 -9.59625 -62.7106 -9.24999 4.74057 13.2848 -5.74129 -7.13912 -26.9531 10.3832 45.5571 14.815 16.9375 15.0957 0.0718122 -0.0731726 -54.0474 23.6904 -6.58016 -3.54465 -0.0454598 -0.00616378 -49.9887 1.47758 -6.16068 -2.41079 1.03451e-032 2.38542e-015 -2.48481e-016 2.82533 14.5514 2.35749e-015 5.06175 -5.19286e-018 -5.22159e-015 7.87756 -1.42109e-014 -4.64732e-015 19.1673 -1.6722e-015 7.67767e-016 6.52588 0 1.74513e-015 -6.36111e-015 -5.82377e-019 1.94126e-019 -9.30511 7.998 11.2048 -6.8505 -4.18474e-016 -90 0 0 0 -1.83803e-018 3.10601e-018 -0 -9.30514 7.99801 -11.2048 173.149 4.18474e-016 -90 0 0 0 3.33407e-018 6.21202e-018 -1.94126e-019 
0 0 0 0 0 -0 -1.22327e-016 64.0798 -43 -6.60124e-017 6.83813 90 -0.323145 -1.55994 9.59625 -26.4062 61.2999 -67.9538 16.1374 -6.32606e-007 1.68261e-006 -26.9057 10.3846 45.3457 27.0969 3.55271e-015 -2.84217e-014 4.98513e-015 2.22778e-015 -53.6768 24.8414 3.55271e-015 0 6.99409e-015 9.41297e-016 -50.1512 6.77858 -7.10543e-015 -1.06581e-014 3.79152e-022 0 -6.36111e-015 -19.5397 2.13163e-014 -7.32498e-015 -1.70017e-065 -1.10348e-032 -8.82781e-032 -19.4076 1.98539 -8.19514e-015 -5.84101 8.13814e-032 -2.2414e-016 -18.5401 5.80111 1.91992e-015 -17.3747 -2.54444e-014 -1.16499e-014 -18.018 7.25644 -7.90087e-015 -22.4917 7.64385e-017 -7.88484e-015 -19.144 8.35871 -3.05893e-014 -23.5872 -7.06225e-030 -1.12214e-014 -16.3943 7.24542 1.57147e-014 -23.8429 6.36111e-015 -1.26869e-014 -19.3877 2.40349 -4.62224e-014 -7.06692 9.54166e-015 -1.2707e-014 -13.796 -11.6756 2.10241e-014 1.76275 -1.69494e-029 -1.21824e-029 -15.825 14.8229 15.3879 112.717 -2.35881 -24.301 6.55118 1.42109e-013 1.77636e-014 -9.54852 -7.83375 0.77351 6.73503 5.68434e-014 -4.9738e-014 8.82781e-032 -7.95139e-016 6.36111e-015 1.34858 -27.5886 -1.33918e-014 92.7985 1.31729e-014 -1.65353e-014 -15.825 14.8229 -15.3879 -8.34896e-015 -1.74931e-014 -2.70347e-014 -2.40814 5.46468 -2.69372 -44.8341 -0.805227 -15.7514 -2.40922 6.0083 -1.85921 6.36111e-015 1.59028e-015 3.18055e-015 4.72477 -9.87974 3.3314e-015 92.7985 3.50417e-015 -90 2.68891 -0.690234 4.02874 180 7.01671e-015 -180 0 0 -14.9226 1.03285e-029 0 5.6498e-030 4.78312e-016 2.84217e-014 3.94939 -1.8097e-029 0 -5.6498e-030 0 0 15.0019 -1.8097e-029 0 -5.6498e-030 -2.689 -0.690236 4.02875 -1.8097e-029 0 -5.6498e-030 9.35075e-005 -0.000392738 14.9226 -1.8097e-029 0 -5.6498e-030 6.0207 -9.81639 4.08905e-015 92.7985 3.50417e-015 -90 2.71301 -0.162748 3.99146 180 7.01671e-015 -180 0 2.84217e-014 -14.9599 1.03285e-029 0 5.6498e-030 4.99e-016 -0.0431035 3.99141 -1.8097e-029 0 -5.6498e-030 -2.52435e-029 -2.84217e-014 14.9599 -1.8097e-029 0 -5.6498e-030 -2.71301 -0.162761 3.99141 -1.8097e-029 0 -5.6498e-030 0 -2.84217e-014 14.9599 -1.8097e-029 0 -5.6498e-030 -7.85698 -6.72885 9.63956 34.106 19.9417 85.9622 -7.85684 -6.72882 -9.63956 -145.894 19.9417 85.9622 0.477051 -4.53662 6.72563 49.332 26.2605 -112.654 21.051 1.79145e-009 9.78481e-009 71.694 -61.8942 137.156 33.1145 8.3753e-007 -2.8019e-007 141.314 7.01671e-015 180 29.9221 -2.13163e-014 -3.55271e-015 41.4144 2.41509e-015 4.22997e-015 9.62649 2.13163e-014 7.10543e-015 29.859 -1.7467e-015 90 0.477051 -4.53662 -6.72563 -26.0758 9.37258 -17.9831 1.1653 -12.7157 -16.7361 71.1787 -61.7859 136.938 16.2308 -5.97551 28.2387 140.792 -0.169855 -179.507 26.7017 -9.19239 -9.89204 41.1441 -0.234202 -0.13445 4.44874 -7.74942 3.58114 29.859 -8.08068e-015 90 -0.323145 -1.55994 -9.59625 -62.7106 -9.24999 4.74057 13.2848 -5.74129 -7.13912 -27.1011 10.3845 45.573 14.815 16.9375 15.0957 0.259664 -0.264583 -54.0469 23.6904 -6.58016 -3.54465 -0.1633 -0.0244335 -49.9861 1.47758 -6.16068 -2.41079 1.19271e-015 -7.95139e-016 1.54058e-015 2.82533 14.5514 1.04097e-015 4.99157 9.93129e-031 -5.22158e-015 7.87756 -4.26326e-014 -3.84139e-015 19.1217 -1.67259e-015 7.66947e-016 6.52588 7.10543e-015 2.11278e-015 -1.74098e-062 7.06225e-031 1.41245e-030 -9.30511 7.998 11.2048 -6.8505 -4.18474e-016 -90 0 0 0 6.72431e-033 0 7.06225e-031 -9.30514 7.99801 -11.2048 173.149 4.18474e-016 -90 0 0 0 -1.74848e-031 0 -0 
